# xmcd CD database file
#
# Track frame offsets:
#	150
#	19153
#	35044
#	51991
#	77290
#	92648
#	112413
#	125079
#	148352
#	164863
#	184956
#	201734
#	220004
#	236666
#	251185
#	265916
#
# Disc length: 3814 seconds
#
# Revision: 0
# Processed by: cddbd v1.5PL3 Copyright (c) Steve Scherf et al.
# Submitted via: CDex 1.51
#
DISCID=060ee410
DTITLE=Various Artist - Big Hits 1980-2000 - Ritmo
DYEAR=2001
DGENRE=Salsa
TTITLE0=The Soca Boys - Follow the leader
TTITLE1=Koma Mobb - Tic Tic Tac
TTITLE2=Mystic - Ritmo de la noche
TTITLE3=Kid Creole and The Coconuts - Annie I´m not your daddy(live)
TTITLE4=Ultradance - Boom boom
TTITLE5=Gloria Gaynor and Chico and The Gypsies - I will survive
TTITLE6=Carrilio - Samba de Janeiro
TTITLE7=Tony Esposito - Kalimbe de luna
TTITLE8=Swing Band - Mambo N°5
TTITLE9=Grupo Merenguisimo - Suavamente
TTITLE10=Proyecto Uno - El tiburon
TTITLE11=Cana de Azucar - Livin' la vida loca
TTITLE12=Valaria Vix - El tigre
TTITLE13=The Princess - Mi chico latino
TTITLE14=Jackie Jones - Latino beat
TTITLE15=Gitano Boys - Ese ritmo
EXTD=YEAR: 2001
EXTT0=
EXTT1=
EXTT2=
EXTT3=
EXTT4=
EXTT5=
EXTT6=
EXTT7=
EXTT8=
EXTT9=
EXTT10=
EXTT11=
EXTT12=
EXTT13=
EXTT14=
EXTT15=
PLAYORDER=
